<?xml version="1.0" standalone="no"?>
<!DOCTYPE svg PUBLIC "-//W3C//DTD SVG 20010904//EN"
 "http://www.w3.org/TR/2001/REC-SVG-20010904/DTD/svg10.dtd">
<svg version="1.0" xmlns="http://www.w3.org/2000/svg"
 width="2560.000000pt" height="511.000000pt" viewBox="0 0 2560.000000 511.000000"
 preserveAspectRatio="xMidYMid meet">

<g transform="translate(0.000000,511.000000) scale(0.100000,-0.100000)"
fill="#000000" stroke="none">
<path d="M3100 5099 c-710 -40 -1731 -234 -2290 -436 -522 -188 -752 -386
-799 -689 -22 -143 23 -352 132 -615 42 -100 326 -719 337 -734 4 -5 42 -77
83 -160 192 -380 516 -967 1067 -1930 97 -171 203 -356 235 -412 31 -57 61
-103 65 -103 4 0 69 96 144 212 76 117 205 317 287 443 82 127 157 244 165
260 l15 30 -187 320 c-814 1393 -1160 2037 -1300 2423 -19 51 -34 102 -34 113
0 26 62 54 275 124 519 172 1493 348 2058 372 l157 6 0 -35 c0 -107 -76 -376
-170 -599 -162 -384 -372 -719 -546 -870 -38 -33 -49 -38 -61 -27 -26 22 -150
216 -201 316 -56 108 -122 265 -122 287 0 8 87 94 192 192 106 98 219 203 252
234 l59 56 -264 -57 c-252 -54 -939 -219 -948 -227 -13 -11 85 -269 200 -525
85 -189 253 -525 332 -664 24 -44 73 -131 107 -194 128 -231 225 -388 321
-516 104 -139 150 -187 174 -178 8 3 37 49 66 102 71 134 141 244 470 740 457
687 638 991 782 1307 145 320 210 561 210 790 1 133 -11 204 -54 315 -38 100
-73 139 -166 188 -161 84 -335 123 -624 141 -180 12 -206 12 -419 0z"/>
<path d="M13548 4240 c-144 -25 -255 -85 -369 -199 -68 -69 -95 -105 -128
-171 -75 -153 -72 -96 -69 -1348 l3 -1117 27 -73 c39 -109 84 -177 173 -268
64 -64 98 -89 165 -122 167 -82 78 -77 1315 -77 1238 0 1150 -5 1315 77 163
82 306 257 357 438 17 61 18 130 18 1175 0 1047 -1 1114 -18 1175 -64 225
-242 413 -461 488 l-81 27 -1100 1 c-605 1 -1121 -2 -1147 -6z m2072 -1680 l0
-960 -960 0 -960 0 0 960 0 960 960 0 960 0 0 -960z"/>
<path d="M16890 2555 l0 -1695 365 0 365 0 0 665 0 665 960 0 960 0 0 365 0
365 -960 0 -960 0 0 300 0 300 3990 0 3990 0 0 365 0 365 -4355 0 -4355 0 0
-1695z"/>
<path d="M5390 2550 l0 -1690 360 0 360 0 0 539 c0 355 3 542 10 546 6 4 8 10
6 14 -7 10 730 21 1441 21 647 0 669 2 808 71 172 84 306 239 366 423 l24 71
0 565 c0 520 -1 570 -18 624 -60 193 -195 353 -374 441 -139 68 -50 65 -1590
65 l-1393 0 0 -1690z m2640 565 l0 -405 -960 0 -960 0 0 398 c0 219 3 402 7
405 3 4 435 7 960 7 l953 0 0 -405z"/>
<path d="M9102 2553 l3 -1688 360 0 360 0 5 547 c3 300 8 549 12 553 4 4 222
8 484 9 l477 1 185 -220 c353 -423 578 -690 665 -792 l88 -103 369 0 370 0 0
128 0 127 -360 425 c-198 234 -360 428 -360 431 0 3 37 9 83 12 101 8 171 28
258 74 137 71 254 191 319 328 58 122 60 139 60 730 0 516 -1 544 -21 615 -34
124 -82 204 -184 305 -103 103 -188 154 -311 185 -75 19 -113 20 -1471 20
l-1393 0 2 -1687z m2648 562 l0 -405 -960 0 -960 0 0 405 0 405 960 0 960 0 0
-405z"/>
<path d="M20664 3415 c-172 -37 -319 -169 -379 -340 -24 -69 -25 -75 -25 -415
0 -380 4 -418 60 -515 64 -113 161 -195 286 -243 l69 -27 793 -3 792 -3 0
-224 c0 -201 -2 -224 -17 -227 -9 -2 -337 -2 -730 0 l-713 2 0 100 0 100 -271
0 -271 0 4 -182 c4 -162 7 -189 27 -238 63 -152 202 -275 356 -316 65 -18
1706 -20 1770 -4 175 47 314 176 377 351 22 62 23 75 23 404 0 370 -3 392 -62
510 -32 63 -152 182 -219 217 -109 59 -97 58 -951 58 l-783 0 0 230 0 230 730
0 730 0 0 -105 0 -105 281 0 282 0 -6 163 c-4 127 -9 176 -26 228 -55 174
-213 317 -388 354 -96 21 -1646 20 -1739 0z"/>
<path d="M23210 2150 l0 -1280 1180 0 1180 0 0 275 0 275 -905 0 -905 0 0 225
0 225 730 0 730 0 0 275 0 275 -727 2 -728 3 0 225 0 225 903 3 902 2 0 275 0
275 -1180 0 -1180 0 0 -1280z"/>
</g>
</svg>
