<?xml version="1.0" standalone="no"?>
<!DOCTYPE svg PUBLIC "-//W3C//DTD SVG 20010904//EN"
 "http://www.w3.org/TR/2001/REC-SVG-20010904/DTD/svg10.dtd">
<svg version="1.0" xmlns="http://www.w3.org/2000/svg"
 width="500.000000pt" height="500.000000pt" viewBox="0 0 500.000000 500.000000"
 preserveAspectRatio="xMidYMid meet">

<g transform="translate(0.000000,500.000000) scale(0.100000,-0.100000)"
fill="#000000" stroke="none">
<path d="M2092 4333 c48 -2 129 -2 180 0 51 1 12 3 -87 3 -99 0 -141 -2 -93
-3z"/>
<path d="M3065 4320 c-11 -5 -52 -9 -90 -9 -224 -3 -765 -89 -1175 -187 -279
-67 -437 -118 -620 -201 -177 -80 -315 -196 -368 -310 -24 -53 -26 -69 -27
-178 0 -127 11 -180 72 -335 41 -105 260 -575 326 -700 221 -420 546 -1004
888 -1594 38 -65 69 -123 69 -127 0 -5 19 -9 43 -9 l42 0 145 223 c79 122 170
262 202 310 32 49 58 91 58 93 0 3 -24 47 -54 97 -30 51 -106 180 -169 287
-557 948 -913 1637 -884 1712 7 20 129 67 291 114 378 110 1027 223 1384 240
l142 7 0 -39 c0 -116 -106 -418 -228 -654 -95 -184 -282 -430 -326 -430 -29 0
-153 203 -216 352 l-39 93 37 38 c20 22 101 98 180 169 78 72 141 133 138 135
-2 2 -33 -3 -68 -11 -36 -8 -112 -25 -169 -36 -57 -12 -212 -48 -344 -81 -132
-33 -250 -62 -263 -65 -21 -4 -23 -9 -16 -37 20 -91 221 -544 327 -734 57
-103 86 -155 145 -263 72 -132 158 -268 228 -360 79 -106 108 -135 123 -126 5
3 28 41 51 84 54 100 145 243 297 467 581 856 767 1244 766 1600 0 94 -4 122
-27 189 -15 44 -36 92 -47 108 -22 30 -121 85 -204 111 -66 22 -216 47 -276
47 -26 0 -51 5 -54 10 -8 12 -261 12 -290 0z"/>
</g>
</svg>
